<svg width="50" height="50" viewBox="0 0 50 50" fill="none" xmlns="http://www.w3.org/2000/svg">
<path d="M36.1913 11.0465C38.1842 9.8959 40.7325 10.5787 41.8831 12.5715C43.0337 14.5643 42.3509 17.1126 40.358 18.2631" fill="#FFCA28"/>
<path d="M38.5651 10.4986C37.7645 10.442 36.9393 10.6156 36.192 11.047L40.3587 18.2628C40.9432 17.9254 41.3995 17.4603 41.7454 16.9316L38.4446 11.2163C38.8455 10.9849 39.2696 10.8463 39.6995 10.759C39.333 10.6252 38.9554 10.5262 38.5651 10.4986Z" fill="#ECB200"/>
<path d="M12.54 37.9319L16.8949 45.435C17.3132 46.1558 17.3304 46.1893 18.1 46.6337L23.152 49.5505C24.7512 50.4738 26.7829 49.9299 27.7063 48.3306C28.6296 46.7314 28.0843 44.7006 26.485 43.7773L22.2111 41.3097L18.4328 34.8984" fill="#FA8072"/>
<path d="M19.9126 37.409C19.4195 36.572 18.9263 35.7349 18.4332 34.8979C16.4685 35.9089 14.5043 36.9204 12.5396 37.9314L13.7863 40.0812L16.895 45.4353C17.3133 46.156 17.3298 46.1887 18.0995 46.633L23.1516 49.5509C23.9512 50.0126 24.8592 50.1066 25.6825 49.8862C25.3872 49.8122 25.0955 49.711 24.8182 49.5509L19.7661 46.633C18.9965 46.1887 18.98 46.156 18.5617 45.4353L15.0347 39.3603L17.1823 38.1194L19.9126 37.409Z" fill="#FF2929"/>
<path d="M3.39659 30.9208L1.24721 32.1835C0.060232 32.8688 -0.354398 34.4092 0.330866 35.5961L1.16257 37.0428C1.84784 38.2297 3.38869 38.6443 4.57567 37.9591L6.72994 36.6899C5.61906 34.7657 4.51319 32.8409 3.39659 30.9208Z" fill="#FFCA28"/>
<path d="M3.39728 30.9206L1.24721 32.1835C0.060232 32.8688 -0.354398 34.4092 0.330866 35.5961L1.16257 37.0428C1.77309 38.1002 3.06182 38.5399 4.17528 38.1397C3.62729 37.9491 3.13914 37.5796 2.82925 37.0428L1.99754 35.5961C1.31227 34.4092 1.7269 32.8688 2.91388 32.1835L3.81883 31.6513C3.67777 31.4081 3.53865 31.1637 3.39728 30.9206Z" fill="#ECB200"/>
<path d="M3.07522 25.3542L8.84874 22.021L17.1821 36.4543L11.4086 39.7876C9.80931 40.7109 7.77848 40.1667 6.85515 38.5675L1.85513 29.9075C0.931796 28.3083 1.47596 26.2776 3.07522 25.3542Z" fill="#FA8072"/>
<path d="M8.84809 22.0205L3.07496 25.355C1.47569 26.2783 0.932541 28.3075 1.85588 29.9068L6.85589 38.5677C7.61913 39.8896 9.13662 40.4763 10.5441 40.1235C9.72161 39.9027 8.98396 39.3668 8.52256 38.5677L3.52255 29.9068C2.59921 28.3075 3.14236 26.2783 4.74163 25.355L9.26475 22.743C9.18039 22.5969 8.91064 22.1288 8.84809 22.0205Z" fill="#FF2929"/>
<path d="M17.1832 36.4524L41.4456 30.1434L26.4312 4.14145L8.84985 22.0206L17.1832 36.4524Z" fill="#E4EFF8"/>
<path d="M10.0851 20.7641L8.84973 22.0205L17.1831 36.4521L41.4459 30.1427L40.6337 28.7367L18.0766 34.6018L10.0851 20.7641Z" fill="#C4DCF0"/>
<path d="M22.2112 41.3092L17.3014 46.0663C17.4592 46.2616 17.658 46.3785 18.1 46.6337L23.1515 49.5514C24.7267 50.4607 26.7839 49.9301 27.7072 48.3309C28.6306 46.7317 28.0844 44.7 26.4851 43.7766L22.2112 41.3092Z" fill="#E4EFF8"/>
<path d="M7.57433 25.7436C7.44172 25.7521 7.32283 25.7856 7.20885 25.8539L4.32375 27.5208C3.38354 28.0707 4.16218 29.5085 5.16037 28.9601L8.04547 27.2965C8.81528 26.8572 8.45473 25.6915 7.57433 25.7436Z" fill="#E4EFF8"/>
<path d="M9.24794 28.6315C9.11533 28.64 8.98992 28.6703 8.87595 28.7386L5.99085 30.4055C5.0271 30.9631 5.86372 32.4086 6.82747 31.8509L9.71256 30.1841C10.4766 29.7249 10.1258 28.5813 9.24794 28.6315Z" fill="#E4EFF8"/>
<path d="M10.9891 31.5157C10.8293 31.51 10.6805 31.5415 10.5431 31.6233L7.65803 33.2902C6.69399 33.8477 7.53061 35.2932 8.49464 34.7356L11.3797 33.0687C12.1 32.6671 11.8381 31.5379 10.9891 31.5157Z" fill="#E4EFF8"/>
<path d="M12.6602 34.3951C12.5003 34.3894 12.3515 34.4209 12.2141 34.5028L9.32905 36.1696C8.36501 36.7272 9.20163 38.1726 10.1657 37.615L13.0508 35.9482C13.771 35.5465 13.5092 34.4174 12.6602 34.3951Z" fill="#E4EFF8"/>
<path d="M29.5025 0.00685977C29.0213 -0.0287754 28.5251 0.0737298 28.0799 0.330709L26.6362 1.16393C25.4493 1.84921 25.0346 3.39618 25.7199 4.58306L40.7199 30.5626C41.4052 31.7495 42.9493 32.1592 44.1363 31.4739L45.58 30.6407C46.767 29.9554 47.18 28.415 46.4947 27.2281L31.4947 1.25018C31.0664 0.508383 30.3044 0.0662514 29.5025 0.00685977Z" fill="#FA8072"/>
<path d="M26.4312 4.14204L24.7727 5.82801C30.2825 15.1076 34.2071 22.128 39.1754 30.7335L41.4459 30.1427L26.4312 4.14204Z" fill="#C4DCF0"/>
<path d="M29.1395 0.00686186C28.7761 0.0327033 28.4138 0.137976 28.0799 0.330711L26.6362 1.16393C25.4493 1.84921 25.0346 3.39619 25.7199 4.58306L40.7199 30.5626C41.3298 31.6189 42.6194 32.0552 43.7327 31.6562C43.1846 31.4665 42.6962 31.0988 42.3866 30.5626L27.3866 4.58306C26.7013 3.39619 27.1159 1.84921 28.3029 1.16393L29.7466 0.330711C29.8767 0.255625 30.0115 0.197562 30.1486 0.148444C29.9395 0.0754741 29.7238 0.0232558 29.5025 0.00686205C29.3822 -0.00204819 29.2606 -0.00175209 29.1395 0.00686186Z" fill="#FF2929"/>
<path d="M47.8209 8.40791C47.6626 8.40543 47.5068 8.44159 47.3719 8.52441L44.4937 10.1819C43.5299 10.7395 44.3665 12.185 45.3303 11.6273L48.2154 9.96043C48.9424 9.54631 48.67 8.43017 47.8209 8.40791Z" fill="#FFCA28"/>
<path d="M45.8323 16.6647C44.7209 16.6647 44.7209 18.3316 45.8323 18.3316H49.1665C50.2779 18.3316 50.2779 16.6647 49.1665 16.6647H45.8323Z" fill="#FFCA28"/>
<path d="M41.5902 3.33609C41.4552 3.34846 41.3252 3.39358 41.2116 3.46754C41.098 3.54149 41.0041 3.64205 40.9381 3.76049L39.271 6.64518C39.216 6.7401 39.1802 6.84493 39.1657 6.95369C39.1511 7.06245 39.1582 7.173 39.1865 7.27903C39.2147 7.38506 39.2636 7.48448 39.3303 7.57162C39.3969 7.65875 39.4802 7.73189 39.5751 7.78685C39.6701 7.84181 39.775 7.87751 39.8838 7.89192C39.9926 7.90633 40.1031 7.89916 40.2092 7.87081C40.3152 7.84247 40.4146 7.79352 40.5016 7.72675C40.5887 7.65998 40.6618 7.5767 40.7167 7.48168L42.3838 4.59699C42.4638 4.46474 42.5055 4.31283 42.5042 4.15825C42.5028 4.00367 42.4585 3.85251 42.3762 3.72167C42.2938 3.59084 42.1767 3.48548 42.0379 3.41739C41.8991 3.34929 41.7441 3.32114 41.5902 3.33609Z" fill="#FFCA28"/>
<path d="M18.3437 45.0593L17.3069 46.0634C17.4698 46.2519 17.6622 46.3805 18.0995 46.633L23.1516 49.5509C23.9513 50.0126 24.8593 50.1066 25.6826 49.8861C25.3873 49.8121 25.0956 49.711 24.8183 49.5509L19.7662 46.633C18.9966 46.1887 18.9801 46.156 18.5618 45.4353L18.3437 45.0593Z" fill="#C4DCF0"/>
</svg>
