<svg width="5" height="8" viewBox="0 0 5 8" fill="none" xmlns="http://www.w3.org/2000/svg">
<path fill-rule="evenodd" clip-rule="evenodd" d="M0.849443 7.60509C0.713443 7.46873 0.636353 7.28371 0.636353 7.09091C0.636353 6.89804 0.713443 6.71309 0.849443 6.57673L3.24435 4.18182L0.849443 1.78691C0.717079 1.64975 0.64362 1.46604 0.645075 1.27535C0.647257 1.08464 0.72362 0.902235 0.858165 0.767391C0.993438 0.632548 1.17526 0.556061 1.36653 0.55441C1.55708 0.552752 1.74035 0.626054 1.87781 0.758534L4.7869 3.66764C4.9229 3.804 4.99999 3.98895 4.99999 4.18182C4.99999 4.37462 4.9229 4.55964 4.7869 4.696L1.87781 7.60509C1.74108 7.74146 1.55635 7.81804 1.36363 7.81804C1.1709 7.81804 0.98617 7.74146 0.849443 7.60509Z" fill="white"/>
</svg>
