<svg width="5" height="8" viewBox="0 0 5 8" fill="none" xmlns="http://www.w3.org/2000/svg">
<path fill-rule="evenodd" clip-rule="evenodd" d="M4.15052 0.758562C4.28689 0.894947 4.36347 1.0799 4.36347 1.27272C4.36347 1.46559 4.28689 1.65054 4.15052 1.7869L1.75561 4.18181L4.15052 6.57672C4.28303 6.71388 4.35634 6.8976 4.35467 7.08829C4.35299 7.27898 4.27649 7.46138 4.14165 7.59621C4.00681 7.73112 3.82441 7.80756 3.63372 7.80923C3.44303 7.8109 3.25932 7.7376 3.12216 7.60509L0.213068 4.69599C0.0767039 4.55963 0.00012207 4.37469 0.00012207 4.18181C0.00012207 3.98901 0.0767039 3.80407 0.213068 3.66763L3.12216 0.758562C3.25852 0.62222 3.44347 0.545624 3.63634 0.545624C3.82921 0.545624 4.01416 0.62222 4.15052 0.758562Z" fill="white"/>
</svg>
