<svg width="40" height="48" viewBox="0 0 40 48" fill="none" xmlns="http://www.w3.org/2000/svg">
<path d="M33.7676 9.01209V40.1314C33.7673 40.7918 33.5048 41.4249 33.0378 41.8917C32.5707 42.3585 31.9374 42.6207 31.2771 42.6207H2.48931C1.8291 42.6207 1.19594 42.3585 0.729101 41.8916C0.262265 41.4248 0 40.7916 0 40.1314V2.62801C0 1.9678 0.262265 1.33464 0.729101 0.867803C1.19594 0.400968 1.8291 0.138702 2.48931 0.138702H26.2403L33.7676 9.01209Z" fill="#F5EFEA"/>
<path d="M26.2403 0.137512H25.3227L30.3972 6.12107V37.2404C30.3972 37.9006 30.1349 38.5338 29.6681 39.0006C29.2013 39.4675 28.5681 39.7297 27.9079 39.7297H0V40.1315C0 40.7917 0.262265 41.4248 0.729101 41.8917C1.19594 42.3585 1.8291 42.6208 2.48931 42.6208H31.2771C31.9374 42.6208 32.5707 42.3585 33.0378 41.8917C33.5048 41.4249 33.7673 40.7918 33.7676 40.1315V9.01211L26.2403 0.137512Z" fill="#EDE4DD"/>
<path d="M7.72159 17.7568H5.16432C4.21851 17.7568 3.45178 18.5235 3.45178 19.4693V22.0266C3.45178 22.9724 4.21851 23.7391 5.16432 23.7391H7.72159C8.6674 23.7391 9.43412 22.9724 9.43412 22.0266V19.4693C9.43412 18.5235 8.6674 17.7568 7.72159 17.7568Z" fill="#7869E6"/>
<path d="M4.0465 22.5716V20.0143C4.04586 19.789 4.08968 19.5658 4.17546 19.3574C4.26124 19.1491 4.38728 18.9598 4.54637 18.8002C4.70545 18.6407 4.89446 18.5141 5.10255 18.4277C5.31064 18.3414 5.53373 18.2969 5.75903 18.2969H8.31631C8.6055 18.2966 8.88999 18.3701 9.14284 18.5105C8.98645 18.2768 8.77481 18.0853 8.52668 17.953C8.27854 17.8206 8.00159 17.7516 7.72038 17.752H5.16432C4.71013 17.752 4.27453 17.9324 3.95337 18.2535C3.63221 18.5747 3.45178 19.0103 3.45178 19.4645V22.0218C3.45156 22.3293 3.53416 22.6313 3.69092 22.8959C3.84768 23.1605 4.0728 23.378 4.34264 23.5255C4.15058 23.2444 4.0474 22.912 4.0465 22.5716Z" fill="#A095F1"/>
<path d="M8.38911 17.8915C8.51367 18.1328 8.5786 18.4004 8.57845 18.672V21.228C8.57845 21.6822 8.39802 22.1178 8.07686 22.439C7.7557 22.7601 7.32011 22.9405 6.86591 22.9405H4.30864C4.07894 22.941 3.85149 22.8952 3.63989 22.8058C3.7834 23.0867 4.00168 23.3225 4.27067 23.4872C4.53966 23.6518 4.8489 23.7391 5.1643 23.7392H7.72036C8.17456 23.7392 8.61015 23.5587 8.93131 23.2376C9.25247 22.9164 9.4329 22.4808 9.4329 22.0266V19.4694C9.43299 19.1329 9.33406 18.8039 9.14845 18.5234C8.96284 18.2428 8.69875 18.0231 8.38911 17.8915Z" fill="#5141C6"/>
<path d="M7.72159 8.66132H5.16432C4.21851 8.66132 3.45178 9.42804 3.45178 10.3739V12.9311C3.45178 13.8769 4.21851 14.6437 5.16432 14.6437H7.72159C8.6674 14.6437 9.43412 13.8769 9.43412 12.9311V10.3739C9.43412 9.42804 8.6674 8.66132 7.72159 8.66132Z" fill="#7869E6"/>
<path d="M4.0465 13.4761V10.92C4.0465 10.4658 4.22692 10.0302 4.54809 9.70907C4.86925 9.38791 5.30484 9.20748 5.75903 9.20748H8.3163C8.6055 9.20719 8.88999 9.28071 9.14284 9.42109C8.98651 9.18723 8.77491 8.99554 8.52679 8.863C8.27866 8.73047 8.00168 8.6612 7.72038 8.66132H5.16432C4.71012 8.66132 4.27453 8.84174 3.95337 9.16291C3.63221 9.48407 3.45178 9.91966 3.45178 10.3739V12.9311C3.45217 13.2379 3.53508 13.5389 3.69182 13.8027C3.84856 14.0664 4.07335 14.2831 4.34264 14.43C4.15058 14.1489 4.0474 13.8166 4.0465 13.4761Z" fill="#A095F1"/>
<path d="M8.38911 8.79727C8.51348 9.03818 8.5784 9.30535 8.57845 9.57647V12.1337C8.57845 12.5879 8.39802 13.0235 8.07686 13.3447C7.7557 13.6659 7.32011 13.8463 6.86591 13.8463H4.30864C4.07886 13.8464 3.85141 13.8001 3.63989 13.7103C3.7834 13.9912 4.00168 14.227 4.27067 14.3917C4.53966 14.5564 4.8489 14.6436 5.1643 14.6437H7.72036C7.94526 14.6437 8.16795 14.5994 8.37572 14.5133C8.5835 14.4273 8.77228 14.3011 8.93131 14.1421C9.09033 13.9831 9.21648 13.7943 9.30254 13.5865C9.3886 13.3787 9.4329 13.156 9.4329 12.9311V10.3739C9.43322 10.0376 9.33437 9.70862 9.14872 9.4282C8.96307 9.14777 8.69885 8.92831 8.38911 8.79727Z" fill="#5141C6"/>
<path d="M6.70444 13.5319C6.628 13.532 6.55181 13.523 6.47747 13.5052C6.34252 13.4735 6.21568 13.414 6.10511 13.3304C5.99454 13.2468 5.90268 13.141 5.83543 13.0197L4.91544 11.3424C4.78893 11.1118 4.75923 10.8403 4.83286 10.5878C4.9065 10.3352 5.07743 10.1223 5.30807 9.99579C5.53871 9.86929 5.81015 9.83959 6.06269 9.91322C6.31523 9.98685 6.52817 10.1578 6.65467 10.3884L7.04549 11.1009L11.2837 8.16128C11.3905 8.08256 11.5119 8.02606 11.6409 7.99511C11.7699 7.96417 11.9037 7.95941 12.0346 7.98112C12.1654 8.00283 12.2906 8.05057 12.4026 8.12151C12.5147 8.19245 12.6114 8.28515 12.687 8.39412C12.7626 8.5031 12.8156 8.62613 12.8428 8.75594C12.87 8.88575 12.8709 9.0197 12.8454 9.14986C12.8199 9.28002 12.7686 9.40375 12.6944 9.51371C12.6203 9.62368 12.5248 9.71765 12.4137 9.79007L7.27002 13.3571C7.10372 13.4717 6.90637 13.5327 6.70444 13.5319Z" fill="#FFC845"/>
<path d="M26.4016 12.7224H13.9891C13.8456 12.7272 13.7025 12.7031 13.5685 12.6515C13.4345 12.5999 13.3122 12.5219 13.209 12.4221C13.1057 12.3222 13.0236 12.2027 12.9675 12.0705C12.9115 11.9382 12.8826 11.7961 12.8826 11.6525C12.8826 11.5089 12.9115 11.3667 12.9675 11.2345C13.0236 11.1023 13.1057 10.9827 13.209 10.8829C13.3122 10.7831 13.4345 10.705 13.5685 10.6535C13.7025 10.6019 13.8456 10.5778 13.9891 10.5826H26.4016C26.5452 10.5778 26.6882 10.6019 26.8222 10.6535C26.9563 10.705 27.0785 10.7831 27.1818 10.8829C27.285 10.9827 27.3671 11.1023 27.4232 11.2345C27.4793 11.3667 27.5082 11.5089 27.5082 11.6525C27.5082 11.7961 27.4793 11.9382 27.4232 12.0705C27.3671 12.2027 27.285 12.3222 27.1818 12.4221C27.0785 12.5219 26.9563 12.5999 26.8222 12.6515C26.6882 12.7031 26.5452 12.7272 26.4016 12.7224Z" fill="#7869E6"/>
<path d="M26.4016 21.8167H13.9891C13.8456 21.8215 13.7025 21.7974 13.5685 21.7458C13.4345 21.6942 13.3122 21.6162 13.209 21.5164C13.1057 21.4165 13.0236 21.297 12.9675 21.1648C12.9115 21.0325 12.8826 20.8904 12.8826 20.7468C12.8826 20.6032 12.9115 20.461 12.9675 20.3288C13.0236 20.1966 13.1057 20.077 13.209 19.9772C13.3122 19.8774 13.4345 19.7993 13.5685 19.7478C13.7025 19.6962 13.8456 19.6721 13.9891 19.6769H26.4016C26.5452 19.6721 26.6882 19.6962 26.8222 19.7478C26.9563 19.7993 27.0785 19.8774 27.1818 19.9772C27.285 20.077 27.3671 20.1966 27.4232 20.3288C27.4793 20.461 27.5082 20.6032 27.5082 20.7468C27.5082 20.8904 27.4793 21.0325 27.4232 21.1648C27.3671 21.297 27.285 21.4165 27.1818 21.5164C27.0785 21.6162 26.9563 21.6942 26.8222 21.7458C26.6882 21.7974 26.5452 21.8215 26.4016 21.8167Z" fill="#7869E6"/>
<path d="M26.4017 30.9194H13.9892C13.7053 30.9194 13.433 30.8067 13.2322 30.6059C13.0315 30.4052 12.9187 30.1329 12.9187 29.849C12.9187 29.565 13.0315 29.2928 13.2322 29.092C13.433 28.8913 13.7053 28.7785 13.9892 28.7785H26.4017C26.6856 28.7785 26.9579 28.8913 27.1587 29.092C27.3594 29.2928 27.4722 29.565 27.4722 29.849C27.4722 30.1329 27.3594 30.4052 27.1587 30.6059C26.9579 30.8067 26.6856 30.9194 26.4017 30.9194Z" fill="#7869E6"/>
<path d="M7.72159 26.8523H5.16432C4.21851 26.8523 3.45178 27.6191 3.45178 28.5649V31.1221C3.45178 32.0679 4.21851 32.8347 5.16432 32.8347H7.72159C8.6674 32.8347 9.43412 32.0679 9.43412 31.1221V28.5649C9.43412 27.6191 8.6674 26.8523 7.72159 26.8523Z" fill="#7869E6"/>
<path d="M4.0465 31.6671V29.1098C4.04714 28.656 4.22785 28.2211 4.54894 27.9004C4.87004 27.5798 5.30526 27.3997 5.75903 27.3997H8.3163C8.6055 27.3994 8.88999 27.4729 9.14284 27.6133C8.98645 27.3796 8.77481 27.1881 8.52667 27.0557C8.27854 26.9234 8.00159 26.8544 7.72038 26.8547H5.16432C4.71012 26.8547 4.27453 27.0352 3.95337 27.3563C3.63221 27.6775 3.45178 28.1131 3.45178 28.5673V31.1233C3.45282 31.4295 3.53604 31.7298 3.69275 31.9928C3.84945 32.2558 4.07389 32.4719 4.34264 32.6186C4.15104 32.3382 4.04789 32.0067 4.0465 31.6671Z" fill="#A095F1"/>
<path d="M8.38911 26.987C8.51311 27.2272 8.57802 27.4935 8.57845 27.7638V30.3211C8.57845 30.7753 8.39802 31.2109 8.07686 31.532C7.7557 31.8532 7.32011 32.0336 6.86591 32.0336H4.30864C4.079 32.0335 3.85166 31.9877 3.63989 31.8989C3.78346 32.1796 4.00179 32.4152 4.27079 32.5797C4.53979 32.7442 4.849 32.8312 5.1643 32.831H7.72036C7.9453 32.8312 8.16806 32.787 8.37591 32.701C8.58376 32.615 8.77261 32.4888 8.93166 32.3298C9.09072 32.1707 9.21686 31.9819 9.30286 31.774C9.38887 31.5662 9.43306 31.3434 9.4329 31.1185V28.5648C9.43299 28.2284 9.33406 27.8994 9.14845 27.6189C8.96284 27.3383 8.69875 27.1185 8.38911 26.987Z" fill="#5141C6"/>
<path d="M26.2511 0.19211L33.8259 9.12739C34.1414 9.5 33.8938 10.0984 33.4241 10.0984H28.5827C26.773 10.0984 25.3057 8.53389 25.3057 6.60289V0.576854C25.3069 0.0501066 25.9186 -0.20113 26.2511 0.19211Z" fill="#E2D6CC"/>
<path d="M30.9786 47.0314C35.9604 47.0314 39.9989 42.9929 39.9989 38.0111C39.9989 33.0294 35.9604 28.9909 30.9786 28.9909C25.9969 28.9909 21.9584 33.0294 21.9584 38.0111C21.9584 42.9929 25.9969 47.0314 30.9786 47.0314Z" fill="#7869E6"/>
<path d="M22.3564 39.5974C22.3543 37.4653 23.1077 35.4015 24.4827 33.7721C25.8577 32.1426 27.7656 31.053 29.8676 30.6966C31.9697 30.3402 34.1301 30.74 35.9654 31.825C37.8007 32.9101 39.1923 34.6103 39.8932 36.6238C39.7012 35.3851 39.2531 34.1999 38.5775 33.144C37.902 32.088 37.0137 31.1845 35.9694 30.491C34.9252 29.7975 33.7478 29.3293 32.5125 29.1163C31.2772 28.9032 30.011 28.95 28.7948 29.2536C27.5785 29.5571 26.4389 30.1109 25.4486 30.8795C24.4584 31.6481 23.6392 32.6147 23.0433 33.7176C22.4474 34.8205 22.088 36.0355 21.9879 37.285C21.8878 38.5346 22.0493 39.7913 22.462 40.975C22.3914 40.5192 22.3561 40.0586 22.3564 39.5974Z" fill="#A095F1"/>
<path d="M37.8408 32.1623C38.7291 34.1423 38.8737 36.3763 38.2479 38.4543C37.6222 40.5324 36.2682 42.3151 34.4343 43.4755C32.6003 44.6358 30.4095 45.096 28.2637 44.7716C26.1179 44.4472 24.161 43.3599 22.7521 41.7093C23.2811 42.8886 24.0575 43.9404 25.0286 44.7935C25.9997 45.6466 27.1429 46.2809 28.3805 46.6536C29.6182 47.0263 30.9216 47.1286 32.2022 46.9536C33.4829 46.7785 34.711 46.3303 35.8033 45.6392C36.8956 44.948 37.8266 44.0302 38.5332 42.9479C39.2397 41.8655 39.7054 40.6439 39.8987 39.3659C40.0919 38.0878 40.0081 36.7831 39.6531 35.5403C39.298 34.2974 38.68 33.1454 37.8408 32.1623Z" fill="#5141C6"/>
<path d="M27.9613 41.776C27.8912 41.776 27.8212 41.7687 27.7526 41.7541C27.6198 41.7254 27.4943 41.6698 27.3839 41.5907C27.2735 41.5115 27.1804 41.4106 27.1105 41.2942L25.4477 38.5245C25.3222 38.2996 25.289 38.0347 25.3553 37.7858C25.4216 37.537 25.5821 37.3236 25.8029 37.191C26.0237 37.0584 26.2874 37.0169 26.5382 37.0752C26.7891 37.1336 27.0074 37.2873 27.1469 37.5038L28.2647 39.3656L34.8187 34.8203C35.0349 34.6794 35.2975 34.6283 35.5507 34.6779C35.8039 34.7274 36.0278 34.8738 36.1749 35.0858C36.322 35.2978 36.3806 35.5588 36.3384 35.8133C36.2962 36.0679 36.1564 36.2959 35.9487 36.449L28.5257 41.6C28.36 41.715 28.163 41.7764 27.9613 41.776Z" fill="white"/>
</svg>
