<svg width="40" height="43" viewBox="0 0 40 43" fill="none" xmlns="http://www.w3.org/2000/svg">
<path d="M33 4H5C2.23858 4 0 6.23858 0 9V36C0 38.7614 2.23858 41 5 41H33C35.7614 41 38 38.7614 38 36V9C38 6.23858 35.7614 4 33 4Z" fill="#EAEFF0"/>
<path d="M1.488 5.448C1.01677 5.91177 0.642532 6.46466 0.387069 7.07447C0.131606 7.68429 2.86823e-05 8.33884 0 9V36C0.00158786 37.3256 0.528882 38.5964 1.46622 39.5338C2.40356 40.4711 3.67441 40.9984 5 41H33C34.3159 41 35.5785 40.4795 36.512 39.552L1.488 5.448Z" fill="#D9E1E2"/>
<path d="M33 4H5C3.67441 4.00159 2.40356 4.52888 1.46622 5.46622C0.528882 6.40356 0.00158786 7.67441 0 9V14H38V9C37.9984 7.67441 37.4711 6.40356 36.5338 5.46622C35.5965 4.52888 34.3256 4.00159 33 4Z" fill="#FA8072"/>
<path d="M1.488 5.448C1.01677 5.91177 0.642532 6.46466 0.387069 7.07447C0.131606 7.68429 2.86823e-05 8.33884 0 9V14H10.27L1.488 5.448Z" fill="#DD6A57"/>
<path d="M31.3 18.5H27.7C27.0373 18.5 26.5 19.0373 26.5 19.7V23.3C26.5 23.9627 27.0373 24.5 27.7 24.5H31.3C31.9627 24.5 32.5 23.9627 32.5 23.3V19.7C32.5 19.0373 31.9627 18.5 31.3 18.5Z" fill="#8FA5A5"/>
<path d="M20.8 18.5H17.2C16.5373 18.5 16 19.0373 16 19.7V23.3C16 23.9627 16.5373 24.5 17.2 24.5H20.8C21.4627 24.5 22 23.9627 22 23.3V19.7C22 19.0373 21.4627 18.5 20.8 18.5Z" fill="#8FA5A5"/>
<path d="M16.02 19.6C16.02 19.635 16 19.665 16 19.7V23.3C16 23.6183 16.1264 23.9235 16.3515 24.1485C16.5765 24.3736 16.8817 24.5 17.2 24.5H20.8C20.8712 24.4928 20.9415 24.4787 21.01 24.458L16.02 19.6Z" fill="#7B8C8C"/>
<path d="M20.8 28.5H17.2C16.5373 28.5 16 29.0373 16 29.7V33.3C16 33.9627 16.5373 34.5 17.2 34.5H20.8C21.4627 34.5 22 33.9627 22 33.3V29.7C22 29.0373 21.4627 28.5 20.8 28.5Z" fill="#7B8C8C"/>
<path d="M10.3 18.5H6.7C6.03726 18.5 5.5 19.0373 5.5 19.7V23.3C5.5 23.9627 6.03726 24.5 6.7 24.5H10.3C10.9627 24.5 11.5 23.9627 11.5 23.3V19.7C11.5 19.0373 10.9627 18.5 10.3 18.5Z" fill="#7B8C8C"/>
<path d="M10.3 28.5H6.7C6.03726 28.5 5.5 29.0373 5.5 29.7V33.3C5.5 33.9627 6.03726 34.5 6.7 34.5H10.3C10.9627 34.5 11.5 33.9627 11.5 33.3V29.7C11.5 29.0373 10.9627 28.5 10.3 28.5Z" fill="#7B8C8C"/>
<path d="M12 2C12 0.895431 11.1046 0 10 0C8.89543 0 8 0.895431 8 2V6C8 7.10457 8.89543 8 10 8C11.1046 8 12 7.10457 12 6V2Z" fill="#2D4A60"/>
<path d="M30 2C30 0.895431 29.1046 0 28 0C26.8954 0 26 0.895431 26 2V6C26 7.10457 26.8954 8 28 8C29.1046 8 30 7.10457 30 6V2Z" fill="#2D4A60"/>
<path d="M30 43C35.5228 43 40 38.5228 40 33C40 27.4772 35.5228 23 30 23C24.4772 23 20 27.4772 20 33C20 38.5228 24.4772 43 30 43Z" fill="#2D4A60"/>
<path d="M30 41C34.4183 41 38 37.4183 38 33C38 28.5817 34.4183 25 30 25C25.5817 25 22 28.5817 22 33C22 37.4183 25.5817 41 30 41Z" fill="#EAEFF0"/>
<path d="M33 34H30C29.7348 34 29.4804 33.8946 29.2929 33.7071C29.1054 33.5196 29 33.2652 29 33V28C29 27.7348 29.1054 27.4804 29.2929 27.2929C29.4804 27.1054 29.7348 27 30 27C30.2652 27 30.5196 27.1054 30.7071 27.2929C30.8946 27.4804 31 27.7348 31 28V32H33C33.2652 32 33.5196 32.1054 33.7071 32.2929C33.8946 32.4804 34 32.7348 34 33C34 33.2652 33.8946 33.5196 33.7071 33.7071C33.5196 33.8946 33.2652 34 33 34Z" fill="#2D4A60"/>
</svg>
