<svg width="20" height="20" viewBox="0 0 20 20" fill="none" xmlns="http://www.w3.org/2000/svg">
<path d="M12.4697 7.71966C12.7626 7.42677 13.2374 7.42677 13.5303 7.71966C13.8232 8.01255 13.8232 8.48743 13.5303 8.78032L9.69699 12.6137C9.4041 12.9065 8.92922 12.9065 8.63633 12.6137L6.46966 10.447C6.17677 10.1541 6.17677 9.67922 6.46966 9.38633C6.76256 9.09343 7.23743 9.09343 7.53032 9.38633L9.16666 11.0227L12.4697 7.71966Z" fill="#7869E6"/>
<path fill-rule="evenodd" clip-rule="evenodd" d="M10 1.74997C14.5559 1.74997 18.25 5.44403 18.25 9.99997C18.25 14.5559 14.5559 18.25 10 18.25C5.44406 18.25 1.75 14.5559 1.75 9.99997C1.75 5.44404 5.44407 1.74997 10 1.74997ZM10 3.24997C6.27166 3.24997 3.25 6.27163 3.25 9.99997C3.25 13.7283 6.27166 16.75 10 16.75C13.7283 16.75 16.75 13.7283 16.75 9.99997C16.75 6.27163 13.7283 3.24997 10 3.24997Z" fill="#7869E6"/>
</svg>
