<svg width="20" height="20" viewBox="0 0 20 20" fill="none" xmlns="http://www.w3.org/2000/svg">
<path fill-rule="evenodd" clip-rule="evenodd" d="M9.57675 1.69725C9.92175 1.69725 10.2017 1.97725 10.2017 2.32225C10.2017 2.66725 9.92175 2.94725 9.57675 2.94725H6.46091C4.30758 2.94725 2.91675 4.42225 2.91675 6.70475V13.6331C2.91675 15.9156 4.30758 17.3906 6.46091 17.3906H13.8142C15.9676 17.3906 17.3592 15.9156 17.3592 13.6331V10.2764C17.3592 9.93142 17.6392 9.65142 17.9842 9.65142C18.3292 9.65142 18.6092 9.93142 18.6092 10.2764V13.6331C18.6092 16.6281 16.6817 18.6406 13.8142 18.6406H6.46091C3.59341 18.6406 1.66675 16.6281 1.66675 13.6331V6.70475C1.66675 3.70975 3.59341 1.69725 6.46091 1.69725H9.57675ZM16.8347 2.42942L17.8489 3.44358C18.3431 3.93692 18.6147 4.59275 18.6139 5.29108C18.6139 5.98942 18.3422 6.64442 17.8489 7.13692L11.5914 13.3944C11.1322 13.8536 10.5206 14.1069 9.87058 14.1069H6.74891C6.58058 14.1069 6.41891 14.0386 6.30141 13.9178C6.18391 13.7978 6.11975 13.6353 6.12391 13.4661L6.20225 10.3169C6.21808 9.69025 6.47058 9.10108 6.91391 8.65692L13.1422 2.42942C14.1606 1.41275 15.8164 1.41275 16.8347 2.42942ZM12.6292 4.70942L7.79808 9.54108C7.58225 9.75692 7.45975 10.0436 7.45225 10.3477L7.38975 12.8569H9.87058C10.1872 12.8569 10.4839 12.7344 10.7081 12.5103L15.5684 7.64858L12.6292 4.70942ZM14.0256 3.31358L13.5126 3.82525L16.4517 6.76525L16.9656 6.25275C17.2222 5.99608 17.3639 5.65442 17.3639 5.29108C17.3639 4.92692 17.2222 4.58442 16.9656 4.32775L15.9514 3.31358C15.4206 2.78442 14.5572 2.78442 14.0256 3.31358Z" fill="#99A2AD"/>
</svg>
