<svg width="16" height="16" viewBox="0 0 16 16" fill="none" xmlns="http://www.w3.org/2000/svg">
<path fill-rule="evenodd" clip-rule="evenodd" d="M9.5062 4.9853L3.48147 11.01C3.34394 11.1476 3.26668 11.3341 3.26668 11.5286V12.6667C3.26668 12.7035 3.29653 12.7333 3.33335 12.7333H4.47142C4.66591 12.7333 4.85244 12.6561 4.98996 12.5185L11.0147 6.4938L9.5062 4.9853ZM10.3547 4.13677L11.8632 5.64527L12.6175 4.89102C12.7737 4.73481 12.7737 4.48154 12.6175 4.32534L11.6747 3.38253C11.5185 3.22632 11.2652 3.22632 11.109 3.38253L10.3547 4.13677ZM2.63294 10.1615L10.2604 2.534C10.8853 1.90916 11.8984 1.90916 12.5232 2.534L13.466 3.47681C14.0908 4.10165 14.0908 5.11471 13.466 5.73955L5.83849 13.3671C5.47592 13.7296 4.98417 13.9333 4.47142 13.9333L3.33335 13.9333C2.63379 13.9333 2.06668 13.3662 2.06668 12.6667L2.06668 11.5286C2.06668 11.0158 2.27037 10.5241 2.63294 10.1615Z" fill="#C4C4C4"/>
</svg>
