<svg width="50" height="50" viewBox="0 0 50 50" fill="none" xmlns="http://www.w3.org/2000/svg">
<g clip-path="url(#clip0_1_192)">
<path d="M39.6552 50H10.3448C8.44045 50 6.89661 48.4562 6.89661 46.5518V6.89658C6.89661 4.99219 8.44045 3.44834 10.3448 3.44834H39.6552C41.5596 3.44834 43.1034 4.99219 43.1034 6.89658V46.5518C43.1034 48.4562 41.5596 50 39.6552 50Z" fill="#FFC02D"/>
<path d="M39.6551 47.4138H10.3448C9.8687 47.4138 9.48267 47.0277 9.48267 46.5517V6.89658C9.48267 6.42051 9.8687 6.03447 10.3448 6.03447H39.6551C40.1312 6.03447 40.5172 6.42051 40.5172 6.89658V46.5518C40.5172 47.0278 40.1312 47.4138 39.6551 47.4138Z" fill="#EFF2FA"/>
<path d="M30.1724 3.44824H27.5862V2.58613C27.5862 1.15791 26.4283 0 25 0C23.5717 0 22.4137 1.15791 22.4137 2.58623V3.44834H19.8275C18.8754 3.44834 18.1034 4.22022 18.1034 5.17246V6.89658H31.8965V5.17246C31.8966 4.22012 31.1246 3.44824 30.1724 3.44824ZM25 3.44824C24.5239 3.44824 24.1379 3.06221 24.1379 2.58613C24.1379 2.11006 24.5239 1.72402 25 1.72402C25.4761 1.72402 25.8621 2.11006 25.8621 2.58613C25.8621 3.06221 25.4761 3.44824 25 3.44824Z" fill="#C7CFE2"/>
<path d="M31.8966 7.75859H18.1034C17.6274 7.75859 17.2413 7.37256 17.2413 6.89648C17.2413 6.42041 17.6274 6.03437 18.1034 6.03437H31.8965C32.3726 6.03437 32.7586 6.42041 32.7586 6.89648C32.7586 7.37266 32.3727 7.75859 31.8966 7.75859Z" fill="#AFB9D2"/>
<path d="M16.3793 19.8275C16.1587 19.8275 15.9381 19.7434 15.7698 19.575L13.1836 16.9888C12.8469 16.6521 12.8469 16.1064 13.1836 15.7697C13.5203 15.433 14.0659 15.433 14.4026 15.7697L16.3793 17.7465L20.0802 14.0456C20.4169 13.7089 20.9625 13.7089 21.2992 14.0456C21.6359 14.3823 21.6359 14.9279 21.2992 15.2647L16.9888 19.575C16.8205 19.7435 16.5999 19.8275 16.3793 19.8275Z" fill="#82889D"/>
<g opacity="0.97">
<path d="M31.0345 16.3793H24.1379C23.6618 16.3793 23.2758 15.9933 23.2758 15.5172C23.2758 15.0411 23.6618 14.6551 24.1379 14.6551H31.0345C31.5105 14.6551 31.8966 15.0411 31.8966 15.5172C31.8966 15.9934 31.5105 16.3793 31.0345 16.3793Z" fill="#AFB9D2"/>
</g>
<g opacity="0.97">
<path d="M35.3448 19.8275H24.1379C23.6618 19.8275 23.2758 19.4415 23.2758 18.9654C23.2758 18.4894 23.6618 18.1033 24.1379 18.1033H35.3448C35.8209 18.1033 36.2069 18.4894 36.2069 18.9654C36.2069 19.4416 35.8209 19.8275 35.3448 19.8275Z" fill="#C7CFE2"/>
</g>
<path d="M16.3793 40.5173C16.1587 40.5173 15.9381 40.4331 15.7698 40.2647L13.1836 37.6784C12.8469 37.3417 12.8469 36.7961 13.1836 36.4594C13.5203 36.1227 14.0659 36.1227 14.4026 36.4594L16.3793 38.4361L20.0802 34.7353C20.4169 34.3985 20.9625 34.3985 21.2992 34.7353C21.6359 35.072 21.6359 35.6176 21.2992 35.9543L16.9888 40.2646C16.8205 40.4331 16.5999 40.5173 16.3793 40.5173Z" fill="#82889D"/>
<g opacity="0.97">
<path d="M31.0345 37.0689H24.1379C23.6618 37.0689 23.2758 36.6829 23.2758 36.2068C23.2758 35.7308 23.6618 35.3447 24.1379 35.3447H31.0345C31.5105 35.3447 31.8966 35.7308 31.8966 36.2068C31.8966 36.683 31.5105 37.0689 31.0345 37.0689Z" fill="#AFB9D2"/>
</g>
<g opacity="0.97">
<path d="M35.3448 40.5173H24.1379C23.6618 40.5173 23.2758 40.1312 23.2758 39.6552C23.2758 39.1791 23.6618 38.7931 24.1379 38.7931H35.3448C35.8209 38.7931 36.2069 39.1791 36.2069 39.6552C36.2069 40.1312 35.8209 40.5173 35.3448 40.5173Z" fill="#C7CFE2"/>
</g>
<path d="M16.3793 30.1725C16.1587 30.1725 15.9381 30.0883 15.7698 29.9199L13.1836 27.3336C12.8469 26.9969 12.8469 26.4513 13.1836 26.1145C13.5203 25.7778 14.0659 25.7778 14.4026 26.1145L16.3793 28.0913L20.0802 24.3904C20.4169 24.0537 20.9625 24.0537 21.2992 24.3904C21.6359 24.7271 21.6359 25.2728 21.2992 25.6095L16.9888 29.9198C16.8205 30.0883 16.5999 30.1725 16.3793 30.1725Z" fill="#82889D"/>
<g opacity="0.97">
<path d="M31.0345 26.7241H24.1379C23.6618 26.7241 23.2758 26.3381 23.2758 25.862C23.2758 25.3859 23.6618 24.9999 24.1379 24.9999H31.0345C31.5105 24.9999 31.8966 25.3859 31.8966 25.862C31.8966 26.3382 31.5105 26.7241 31.0345 26.7241Z" fill="#AFB9D2"/>
</g>
<g opacity="0.97">
<path d="M35.3448 30.1725H24.1379C23.6618 30.1725 23.2758 29.7864 23.2758 29.3103C23.2758 28.8343 23.6618 28.4482 24.1379 28.4482H35.3448C35.8209 28.4482 36.2069 28.8343 36.2069 29.3103C36.2069 29.7864 35.8209 30.1725 35.3448 30.1725Z" fill="#C7CFE2"/>
</g>
</g>
<defs>
<clipPath id="clip0_1_192">
<rect width="50" height="50" fill="white"/>
</clipPath>
</defs>
</svg>
