<svg width="50" height="48" viewBox="0 0 50 48" fill="none" xmlns="http://www.w3.org/2000/svg">
<path d="M26.1904 0H23.8094V45H26.1904V0Z" fill="#37474F"/>
<path d="M28.8459 34.7456L27.1626 33.0622L15.2109 45.0139L16.8943 46.6972L28.8459 34.7456Z" fill="#37474F"/>
<path d="M33.1483 46.7116L34.8317 45.0283L22.88 33.0766L21.1967 34.76L33.1483 46.7116Z" fill="#37474F"/>
<path d="M48.8095 3.57141H1.19043V36.9047H48.8095V3.57141Z" fill="white"/>
<path d="M50 2.38098H0V7.14289H50V2.38098Z" fill="#8FBC07"/>
<path d="M50 35.7144H0V38.0953H50V35.7144Z" fill="#8FBC07"/>
<path d="M33.9285 47.619C34.9148 47.619 35.7143 46.8195 35.7143 45.8333C35.7143 44.8471 34.9148 44.0476 33.9285 44.0476C32.9423 44.0476 32.1428 44.8471 32.1428 45.8333C32.1428 46.8195 32.9423 47.619 33.9285 47.619Z" fill="#8FBC07"/>
<path d="M16.0714 47.619C17.0576 47.619 17.8571 46.8195 17.8571 45.8333C17.8571 44.8471 17.0576 44.0476 16.0714 44.0476C15.0851 44.0476 14.2856 44.8471 14.2856 45.8333C14.2856 46.8195 15.0851 47.619 16.0714 47.619Z" fill="#8FBC07"/>
<path d="M25.0714 47.619C26.0576 47.619 26.8571 46.8195 26.8571 45.8333C26.8571 44.8471 26.0576 44.0476 25.0714 44.0476C24.0851 44.0476 23.2856 44.8471 23.2856 45.8333C23.2856 46.8195 24.0851 47.619 25.0714 47.619Z" fill="#8FBC07"/>
<path d="M34.4049 16.5476L27.3811 23.6904L20.2382 16.5476L10.5953 26.0714L13.2144 28.6904L20.2382 21.5476L27.3811 28.6904L37.0239 19.1666L34.4049 16.5476Z" fill="#E00065"/>
<path d="M39.2857 22.6191L30.9524 14.2858H39.2857V22.6191Z" fill="#E00065"/>
</svg>
