<svg width="20" height="20" viewBox="0 0 20 20" fill="none" xmlns="http://www.w3.org/2000/svg">
<path fill-rule="evenodd" clip-rule="evenodd" d="M11.6463 1.66692C11.6821 1.66692 11.7172 1.66993 11.7513 1.67572L11.8654 1.67642C12.0354 1.67642 12.1979 1.74558 12.3162 1.86808L16.5371 6.26558C16.6487 6.38142 16.7113 6.53725 16.7113 6.69808V14.3364C16.7262 16.4272 15.0979 18.1356 13.0037 18.2206L6.32122 18.2214H6.23039C4.18877 18.1753 2.55136 16.5241 2.50147 14.5024L2.50122 5.40892C2.54955 3.34142 4.25705 1.67642 6.30955 1.67642L11.5413 1.67572C11.5754 1.66993 11.6105 1.66692 11.6463 1.66692ZM11.0212 2.92608L6.31122 2.92642C4.93039 2.92642 3.78372 4.04475 3.75122 5.42392V14.3364C3.72039 15.7639 4.84539 16.9398 6.25872 16.9714H12.9787C14.3696 16.9139 15.4712 15.7581 15.4613 14.3414L15.4612 7.48608L13.7863 7.48692C12.2613 7.48275 11.0213 6.23942 11.0213 4.71608L11.0212 2.92608ZM11.4906 12.1737C11.8356 12.1737 12.1156 12.4537 12.1156 12.7987C12.1156 13.1437 11.8356 13.4237 11.4906 13.4237H6.99064C6.64564 13.4237 6.36564 13.1437 6.36564 12.7987C6.36564 12.4537 6.64564 12.1737 6.99064 12.1737H11.4906ZM9.78655 9.047C10.1316 9.047 10.4116 9.327 10.4116 9.672C10.4116 10.017 10.1316 10.297 9.78655 10.297H6.98989C6.64489 10.297 6.36489 10.017 6.36489 9.672C6.36489 9.327 6.64489 9.047 6.98989 9.047H9.78655ZM12.2712 3.62692L12.2713 4.71608C12.2713 5.55275 12.9521 6.23442 13.788 6.23692L14.7762 6.23608L12.2712 3.62692Z" fill="#99A2AD"/>
</svg>
