<svg width="50" height="40" viewBox="0 0 50 40" fill="none" xmlns="http://www.w3.org/2000/svg">
<path d="M32.2223 8.87498C42 8.87498 50 15.625 50 23.875C50 27.5 48.4445 30.875 45.8889 33.5C46.2222 34.75 46.7778 36.375 47.8889 37.875C48.5556 38.75 47.8889 40 46.8889 39.875C43.5556 39.5 40.8889 38.5 39 37.625C36.8889 38.375 34.5556 38.75 32.1111 38.75C22.3334 38.75 14.3334 32 14.3334 23.75C14.4445 15.625 22.4445 8.87498 32.2223 8.87498Z" fill="#7869E6"/>
<path d="M17.7778 0C8 0 0 6.75 0 15C0 18.625 1.55555 22 4.11111 24.625C3.77778 25.875 3.22222 27.5 2.11111 29C1.44444 29.875 2.11111 31.125 3.11111 31C6.44444 30.625 9.11111 29.625 11 28.75C13.1111 29.5 15.4444 29.875 17.8889 29.875C27.6667 29.875 35.6666 23.125 35.6666 14.875C35.5555 6.75 27.5555 0 17.7778 0Z" fill="#8EC6FF"/>
<path d="M9.99993 17.5C11.2272 17.5 12.2222 16.3807 12.2222 15C12.2222 13.6193 11.2272 12.5 9.99993 12.5C8.77263 12.5 7.77771 13.6193 7.77771 15C7.77771 16.3807 8.77263 17.5 9.99993 17.5Z" fill="white"/>
<path d="M17.7778 17.5C19.0051 17.5 20 16.3807 20 15C20 13.6193 19.0051 12.5 17.7778 12.5C16.5505 12.5 15.5555 13.6193 15.5555 15C15.5555 16.3807 16.5505 17.5 17.7778 17.5Z" fill="white"/>
<path d="M25.5555 17.5C26.7828 17.5 27.7777 16.3807 27.7777 15C27.7777 13.6193 26.7828 12.5 25.5555 12.5C24.3282 12.5 23.3333 13.6193 23.3333 15C23.3333 16.3807 24.3282 17.5 25.5555 17.5Z" fill="white"/>
</svg>
