<svg width="20" height="20" viewBox="0 0 20 20" fill="none" xmlns="http://www.w3.org/2000/svg">
<path d="M15 8.33333C15.9167 8.33333 16.6667 9.08333 16.6667 10C16.6667 10.9167 15.9167 11.6667 15 11.6667C14.0834 11.6667 13.3334 10.9167 13.3334 10C13.3334 9.08333 14.0834 8.33333 15 8.33333ZM10 11.6667C9.08337 11.6667 8.33337 10.9167 8.33337 10C8.33337 9.08333 9.08337 8.33333 10 8.33333C10.9167 8.33333 11.6667 9.08333 11.6667 10C11.6667 10.9167 10.9167 11.6667 10 11.6667ZM5.00004 11.6667C4.08337 11.6667 3.33337 10.9167 3.33337 10C3.33337 9.08333 4.08337 8.33333 5.00004 8.33333C5.91671 8.33333 6.66671 9.08333 6.66671 10C6.66671 10.9167 5.91671 11.6667 5.00004 11.6667Z" fill="#99A2AD"/>
</svg>
