<svg width="30" height="30" viewBox="0 0 30 30" fill="none" xmlns="http://www.w3.org/2000/svg">
<rect width="30" height="30" rx="6" fill="#7869E6" fill-opacity="0.1"/>
<path d="M15.0027 8.39999C17.6795 8.39999 19.5999 10.5855 19.5999 13.421V14.4875C19.5999 14.6399 19.7288 14.842 20.0803 15.2047C20.1254 15.2512 20.1678 15.2943 20.2605 15.3882C20.9814 16.1193 21.2666 16.5405 21.2666 17.2181C21.2666 17.5145 21.232 17.7455 21.0881 18.0223C20.784 18.6073 20.1392 18.9333 19.1754 18.9333L17.9009 18.934C17.4814 20.489 16.4806 21.3335 14.9999 21.3335C13.5035 21.3335 12.4972 20.4709 12.0858 18.8841L12.0986 18.9333H10.8245C9.83253 18.9333 9.18084 18.5985 8.88972 17.9929C8.76241 17.7281 8.73328 17.5132 8.73328 17.2181C8.73328 16.5405 9.01853 16.1193 9.73936 15.3882C9.83207 15.2943 9.87452 15.2512 9.9196 15.2047C10.2711 14.842 10.3999 14.6399 10.3999 14.4875V13.421C10.3999 10.5866 12.3251 8.39999 15.0027 8.39999ZM16.6439 18.9346H13.356C13.6599 19.7657 14.1838 20.1335 14.9999 20.1335C15.8161 20.1335 16.34 19.7657 16.6439 18.9346ZM15.0027 9.59999C13.0243 9.59999 11.5999 11.2178 11.5999 13.421V14.4875C11.5999 15.0559 11.3403 15.4631 10.7813 16.0399C10.7324 16.0903 10.6863 16.1371 10.5939 16.2307C10.0959 16.7357 9.93328 16.9759 9.93328 17.2181C9.93328 17.3462 9.94231 17.4128 9.97123 17.473C10.0428 17.6218 10.2599 17.7333 10.8245 17.7333H19.1754C19.7221 17.7333 19.9443 17.621 20.0234 17.4688C20.0564 17.4054 20.0666 17.337 20.0666 17.2181C20.0666 16.9759 19.9039 16.7357 19.406 16.2307C19.3136 16.1371 19.2674 16.0903 19.2186 16.0399C18.6596 15.4631 18.3999 15.0559 18.3999 14.4875V13.421C18.3999 11.2162 16.9798 9.59999 15.0027 9.59999Z" fill="#7869E6"/>
</svg>
