<svg width="20" height="20" viewBox="0 0 20 20" fill="none" xmlns="http://www.w3.org/2000/svg">
<path d="M4.63657 2.5H7.0301C7.77303 2.5 8.04243 2.57735 8.31404 2.72261C8.58564 2.86787 8.7988 3.08102 8.94406 3.35263C9.08931 3.62423 9.16667 3.89364 9.16667 4.63657V7.0301C9.16667 7.77303 9.08931 8.04243 8.94406 8.31404C8.7988 8.58564 8.58564 8.7988 8.31404 8.94406C8.04243 9.08931 7.77303 9.16667 7.0301 9.16667H4.63657C3.89364 9.16667 3.62423 9.08931 3.35263 8.94406C3.08102 8.7988 2.86787 8.58564 2.72261 8.31404C2.57735 8.04243 2.5 7.77303 2.5 7.0301V4.63657C2.5 3.89364 2.57735 3.62423 2.72261 3.35263C2.86787 3.08102 3.08102 2.86787 3.35263 2.72261C3.62423 2.57735 3.89364 2.5 4.63657 2.5ZM12.9699 2.5H15.3634C16.1064 2.5 16.3758 2.57735 16.6474 2.72261C16.919 2.86787 17.1321 3.08102 17.2774 3.35263C17.4226 3.62423 17.5 3.89364 17.5 4.63657V7.0301C17.5 7.77303 17.4226 8.04243 17.2774 8.31404C17.1321 8.58564 16.919 8.7988 16.6474 8.94406C16.3758 9.08931 16.1064 9.16667 15.3634 9.16667H12.9699C12.227 9.16667 11.9576 9.08931 11.686 8.94406C11.4144 8.7988 11.2012 8.58564 11.0559 8.31404C10.9107 8.04243 10.8333 7.77303 10.8333 7.0301V4.63657C10.8333 3.89364 10.9107 3.62423 11.0559 3.35263C11.2012 3.08102 11.4144 2.86787 11.686 2.72261C11.9576 2.57735 12.227 2.5 12.9699 2.5ZM4.63657 10.8333H7.0301C7.77303 10.8333 8.04243 10.9107 8.31404 11.0559C8.58564 11.2012 8.7988 11.4144 8.94406 11.686C9.08931 11.9576 9.16667 12.227 9.16667 12.9699V15.3634C9.16667 16.1064 9.08931 16.3758 8.94406 16.6474C8.7988 16.919 8.58564 17.1321 8.31404 17.2774C8.04243 17.4226 7.77303 17.5 7.0301 17.5H4.63657C3.89364 17.5 3.62423 17.4226 3.35263 17.2774C3.08102 17.1321 2.86787 16.919 2.72261 16.6474C2.57735 16.3758 2.5 16.1064 2.5 15.3634V12.9699C2.5 12.227 2.57735 11.9576 2.72261 11.686C2.86787 11.4144 3.08102 11.2012 3.35263 11.0559C3.62423 10.9107 3.89364 10.8333 4.63657 10.8333ZM12.9699 10.8333H15.3634C16.1064 10.8333 16.3758 10.9107 16.6474 11.0559C16.919 11.2012 17.1321 11.4144 17.2774 11.686C17.4226 11.9576 17.5 12.227 17.5 12.9699V15.3634C17.5 16.1064 17.4226 16.3758 17.2774 16.6474C17.1321 16.919 16.919 17.1321 16.6474 17.2774C16.3758 17.4226 16.1064 17.5 15.3634 17.5H12.9699C12.227 17.5 11.9576 17.4226 11.686 17.2774C11.4144 17.1321 11.2012 16.919 11.0559 16.6474C10.9107 16.3758 10.8333 16.1064 10.8333 15.3634V12.9699C10.8333 12.227 10.9107 11.9576 11.0559 11.686C11.2012 11.4144 11.4144 11.2012 11.686 11.0559C11.9576 10.9107 12.227 10.8333 12.9699 10.8333Z" fill="#7869E6"/>
</svg>
