<svg width="20" height="20" viewBox="0 0 20 20" fill="none" xmlns="http://www.w3.org/2000/svg">
<path d="M10.6021 1.84376C11.6086 1.87509 12.2631 2.42888 12.6082 3.47285L12.6629 3.65137L12.7052 3.81121C12.7206 3.87277 12.7397 3.9383 12.7622 4.00637L12.81 4.13918L12.8383 4.15334L12.8958 4.13434L13.0072 4.09169L13.137 4.03516C14.3152 3.48667 15.2216 3.58846 15.9596 4.39948L16.0639 4.52017L16.7474 5.36726C17.3565 6.16922 17.338 7.02639 16.7439 7.95158L16.6395 8.10641L16.5419 8.23986C16.5029 8.29165 16.4632 8.34906 16.4237 8.41075L16.3646 8.50634L16.3366 8.55418L16.34 8.57084L16.4164 8.62124L16.5218 8.68492L16.6496 8.75436C17.8072 9.34511 18.285 10.122 18.1006 11.2012L18.0698 11.3574L17.8664 12.2393C17.7346 12.81 17.6312 13.0801 17.2241 13.4508C16.8286 13.811 16.3774 13.9596 15.7811 14.0089L15.5978 14.0209L15.4325 14.0261C15.3684 14.0273 15.2995 14.0313 15.2274 14.038L15.0766 14.0558L15.0876 14.1745L15.0987 14.2543L15.1256 14.4033C15.395 15.6747 15.0919 16.5349 14.1357 17.0715L13.9946 17.146L13.0155 17.6214C12.0971 18.0345 11.266 17.8237 10.4982 17.0367L10.3708 16.9002L10.2628 16.7751C10.2206 16.7249 10.1731 16.6728 10.1213 16.6198L10.0405 16.54L9.99914 16.5017L9.92276 16.5744L9.83525 16.6644L9.73719 16.7751C8.94346 17.7198 8.10572 18.0589 7.09034 17.664L6.94406 17.6025L6.06788 17.1767L5.80761 17.0435C5.41089 16.8269 5.18826 16.6194 4.97071 16.16C4.74168 15.6763 4.72629 15.2013 4.83732 14.5907L4.87433 14.4033C4.88759 14.3407 4.89918 14.2729 4.90887 14.2012L4.92414 14.0583L4.92081 14.055L4.83441 14.0434L4.71233 14.0325L4.56742 14.0261C3.26801 14.0026 2.49804 13.5138 2.19024 12.4614L2.1494 12.3072L1.90642 11.2462C1.71052 10.2584 2.10288 9.49604 3.04246 8.92494L3.20411 8.83152L3.35034 8.75436C3.40765 8.72512 3.46804 8.6912 3.53017 8.65341L3.65914 8.56918L3.66247 8.55334L3.61035 8.46344L3.54301 8.35912L3.45802 8.23986C2.67654 7.20144 2.58768 6.29376 3.22753 5.40324L3.3239 5.27613L4.01038 4.43145C4.66817 3.66893 5.51045 3.50877 6.53895 3.89757L6.71209 3.96744L6.86291 4.03516C6.91965 4.06158 6.98175 4.0876 7.04782 4.11268L7.16081 4.15251L7.19081 4.13834L7.21883 4.06447L7.2564 3.94952L7.29476 3.81121C7.59402 2.61414 8.19831 1.9421 9.28588 1.85195L9.44456 1.84303L10.6021 1.84376ZM10.5554 3.34303H9.44456L9.32839 3.35154C9.09 3.38259 8.93428 3.51125 8.78447 4.0446L8.74997 4.17501L8.70292 4.34648C8.61545 4.64024 8.48323 4.97081 8.31296 5.29176C7.97586 5.41256 7.6555 5.56854 7.35683 5.75685C7.0054 5.68561 6.6703 5.58111 6.39066 5.46553L6.09899 5.33642C5.89156 5.24757 5.7362 5.20225 5.61309 5.19122L5.54293 5.18864C5.39492 5.19174 5.29719 5.25253 5.20278 5.34915L5.14616 5.41124L4.48855 6.22144L4.40962 6.32591C4.25679 6.54618 4.23393 6.7426 4.57201 7.22208L4.76217 7.48526C4.93876 7.74337 5.11583 8.0615 5.2604 8.40311C5.15255 8.72335 5.07624 9.05808 5.03535 9.40429C4.75713 9.64513 4.46065 9.8515 4.19064 10.0049L3.90542 10.1575C3.39136 10.4402 3.32581 10.6268 3.36661 10.8918L3.37776 10.9544L3.61134 11.9714L3.64508 12.0979C3.72455 12.354 3.86526 12.4929 4.45124 12.5217L4.77403 12.5338C5.08315 12.5532 5.43899 12.6086 5.79327 12.7037C5.98058 12.9945 6.19723 13.2647 6.44006 13.5098C6.4539 13.9487 6.41332 14.3765 6.34175 14.7142C6.17417 15.5051 6.33017 15.6325 6.66133 15.7971L7.59973 16.2534C7.69917 16.2982 7.78803 16.3283 7.88038 16.3272L7.93632 16.3225C8.0872 16.2995 8.2542 16.1877 8.49491 15.9186L8.70974 15.6728C8.92366 15.4405 9.19691 15.1941 9.50016 14.9753L9.74846 14.9938L9.99997 15L10.2515 14.9937L10.5 14.9747C10.8031 15.194 11.0763 15.4405 11.2902 15.6728L11.505 15.9186C11.7758 16.2213 11.9533 16.3249 12.1196 16.3272L12.1747 16.3242C12.2235 16.3185 12.2721 16.3049 12.3227 16.2858L12.4002 16.2534L13.3386 15.7971L13.4543 15.7357C13.7037 15.5903 13.8048 15.4062 13.6582 14.7142C13.5866 14.3765 13.546 13.9487 13.5609 13.51C13.8027 13.2647 14.0194 12.9945 14.2069 12.7023C14.5615 12.6083 14.9171 12.5532 15.226 12.5337L15.5487 12.5217C16.2248 12.4885 16.3081 12.3086 16.3886 11.9714L16.6082 11.0203C16.6837 10.6819 16.6877 10.4837 16.0945 10.1575L15.8093 10.0049C15.5393 9.85146 15.2428 9.64498 14.9648 9.40363C14.9237 9.05808 14.8474 8.72335 14.7391 8.40242C14.884 8.06139 15.0612 7.74335 15.2378 7.48526L15.4279 7.22208C15.766 6.7426 15.7432 6.54618 15.5903 6.32591L15.5529 6.27452L14.8971 5.46283C14.7797 5.32 14.6812 5.21775 14.5204 5.19385L14.457 5.18864C14.3238 5.18586 14.1499 5.2298 13.901 5.33642L13.6094 5.46548C13.33 5.58096 12.9951 5.68524 12.6441 5.75554C12.3443 5.56838 12.0232 5.41211 11.6853 5.29251C11.5232 4.9838 11.3951 4.6667 11.3077 4.38191L11.2132 4.03643C11.0533 3.47194 10.8863 3.3661 10.6189 3.34626L10.5554 3.34303ZM9.99997 6.83334C11.7489 6.83334 13.1666 8.25111 13.1666 10C13.1666 11.7489 11.7489 13.1667 9.99997 13.1667C8.25107 13.1667 6.83331 11.7489 6.83331 10C6.83331 8.25111 8.25107 6.83334 9.99997 6.83334ZM9.99997 8.33334C9.0795 8.33334 8.33331 9.07953 8.33331 10C8.33331 10.9205 9.0795 11.6667 9.99997 11.6667C10.9204 11.6667 11.6666 10.9205 11.6666 10C11.6666 9.07953 10.9204 8.33334 9.99997 8.33334Z" fill="#99A2AD"/>
</svg>
