<svg width="24" height="24" viewBox="0 0 24 24" fill="none" xmlns="http://www.w3.org/2000/svg">
<rect width="24" height="24" rx="6" fill="#7869E6" fill-opacity="0.1"/>
<path d="M14.3917 10.25C14.6816 10.25 14.9167 10.0149 14.9167 9.725C14.9167 9.43505 14.6816 9.2 14.3917 9.2H9.60828C9.31833 9.2 9.08328 9.43505 9.08328 9.725C9.08328 10.0149 9.31833 10.25 9.60828 10.25H14.3917Z" fill="#7869E6"/>
<path d="M14.9167 12C14.9167 12.2899 14.6816 12.525 14.3917 12.525H9.60833C9.31838 12.525 9.08333 12.2899 9.08333 12C9.08333 11.7101 9.31838 11.475 9.60833 11.475H14.3917C14.6816 11.475 14.9167 11.7101 14.9167 12Z" fill="#7869E6"/>
<path d="M11.475 14.8002C11.7649 14.8002 12 14.5652 12 14.2752C12 13.9853 11.7649 13.7502 11.475 13.7502H9.60833C9.31838 13.7502 9.08333 13.9853 9.08333 14.2752C9.08333 14.5652 9.31838 14.8002 9.60833 14.8002H11.475Z" fill="#7869E6"/>
<path fill-rule="evenodd" clip-rule="evenodd" d="M13.4807 6.75H10.5193C9.96656 6.74999 9.51986 6.74999 9.15795 6.77956C8.78503 6.81003 8.45614 6.87449 8.15142 7.02975C7.66848 7.27583 7.27583 7.66848 7.02975 8.15142C6.87449 8.45614 6.81003 8.78503 6.77956 9.15795C6.74999 9.51986 6.74999 9.96655 6.75 10.5193V13.4807C6.74999 14.0334 6.74999 14.4801 6.77956 14.842C6.81003 15.215 6.87449 15.5439 7.02975 15.8486C7.27583 16.3315 7.66848 16.7242 8.15142 16.9703C8.45614 17.1255 8.78503 17.19 9.15795 17.2204C9.51986 17.25 9.96655 17.25 10.5193 17.25H13.4807C14.0334 17.25 14.4801 17.25 14.842 17.2204C15.215 17.19 15.5439 17.1255 15.8486 16.9703C16.3315 16.7242 16.7242 16.3315 16.9703 15.8486C17.1255 15.5439 17.19 15.215 17.2204 14.842C17.25 14.4801 17.25 14.0334 17.25 13.4807V10.5193C17.25 9.96655 17.25 9.51986 17.2204 9.15795C17.19 8.78503 17.1255 8.45614 16.9703 8.15142C16.7242 7.66848 16.3315 7.27583 15.8486 7.02975C15.5439 6.87449 15.215 6.81003 14.842 6.77956C14.4801 6.74999 14.0334 6.74999 13.4807 6.75ZM8.62811 7.96531C8.76014 7.89804 8.93547 7.85124 9.24346 7.82607C9.55757 7.80041 9.96128 7.8 10.5417 7.8H13.4583C14.0387 7.8 14.4424 7.80041 14.7565 7.82607C15.0645 7.85124 15.2399 7.89804 15.3719 7.96531C15.6573 8.11072 15.8893 8.34274 16.0347 8.62811C16.102 8.76014 16.1488 8.93547 16.1739 9.24346C16.1996 9.55757 16.2 9.96128 16.2 10.5417V13.4583C16.2 14.0387 16.1996 14.4424 16.1739 14.7565C16.1488 15.0645 16.102 15.2399 16.0347 15.3719C15.8893 15.6573 15.6573 15.8893 15.3719 16.0347C15.2399 16.102 15.0645 16.1488 14.7565 16.1739C14.4424 16.1996 14.0387 16.2 13.4583 16.2H10.5417C9.96128 16.2 9.55757 16.1996 9.24346 16.1739C8.93547 16.1488 8.76014 16.102 8.62811 16.0347C8.34274 15.8893 8.11072 15.6573 7.96531 15.3719C7.89804 15.2399 7.85124 15.0645 7.82607 14.7565C7.80041 14.4424 7.8 14.0387 7.8 13.4583V10.5417C7.8 9.96128 7.80041 9.55757 7.82607 9.24346C7.85124 8.93547 7.89804 8.76014 7.96531 8.62811C8.11072 8.34274 8.34274 8.11072 8.62811 7.96531Z" fill="#7869E6"/>
</svg>
